<?xml version="1.0" standalone="no"?>
<svg xmlns="http://www.w3.org/2000/svg" xmlns:xlink="http://www.w3.org/1999/xlink" width="2920pt" height="306pt" viewBox="0.00 0.00 2920.07 305.8">
<g id="graph0" class="graph" transform="translate(4,301.79998779296875) scale(1)" data-name="dag">

<polygon fill="white" stroke="none" points="-4,4 -4,-301.8 2916.07,-301.8 2916.07,4 -4,4"/>
<text text-anchor="middle" x="1456.03" y="-8.2" font-family="Times,serif" font-size="14.00">util_parseScaproc</text>
<!-- WORK.SCADATA -->
<g id="node1" class="node" pointer-events="visible" data-name="WORK.SCADATA">

<polygon fill="lightblue" stroke="lightblue" points="482.58,-150.8 370.58,-150.8 370.58,-112.8 482.58,-112.8 482.58,-150.8"/>
<text text-anchor="start" x="378.41" y="-136" font-family="Times,serif" font-size="12.00">WORK.SCADATA</text>
<text text-anchor="start" x="380.58" y="-121.8" font-family="Times,serif" font-size="10.00">step</text>
<text text-anchor="start" x="440.64" y="-121.8" font-family="Times,serif" font-size="10.00">num (5)</text>
</g>
<!-- _02_datastep -->
<g id="node15" class="node" pointer-events="visible" data-name="_02_datastep">

<ellipse fill="yellow" stroke="yellow" cx="591.83" cy="-131.8" rx="73" ry="18"/>
<text text-anchor="middle" x="591.83" y="-127.6" font-family="Times,serif" font-size="14.00">_02_datastep ( )</text>
</g>
<!-- WORK.SCADATA&#45;&gt;_02_datastep -->
<g id="edge3" class="edge" data-name="WORK.SCADATA-&gt;_02_datastep">

<path fill="none" stroke="black" d="M482.85,-131.8C490.73,-131.8 498.98,-131.8 507.26,-131.8"/>
<polygon fill="black" stroke="black" points="507.03,-135.3 517.03,-131.8 507.03,-128.3 507.03,-135.3"/>
</g>
<!-- WORK.SCADATA1 -->
<g id="node2" class="node" pointer-events="visible" data-name="WORK.SCADATA1">

<polygon fill="lightblue" stroke="lightblue" points="819.08,-150.8 701.08,-150.8 701.08,-112.8 819.08,-112.8 819.08,-150.8"/>
<text text-anchor="start" x="708.91" y="-136" font-family="Times,serif" font-size="12.00">WORK.SCADATA1</text>
<text text-anchor="start" x="711.08" y="-121.8" font-family="Times,serif" font-size="10.00">step</text>
<text text-anchor="start" x="777.14" y="-121.8" font-family="Times,serif" font-size="10.00">num (5)</text>
</g>
<!-- _03_datastep -->
<g id="node16" class="node" pointer-events="visible" data-name="_03_datastep">

<ellipse fill="yellow" stroke="yellow" cx="928.33" cy="-108.8" rx="73" ry="18"/>
<text text-anchor="middle" x="928.33" y="-104.6" font-family="Times,serif" font-size="14.00">_03_datastep ( )</text>
</g>
<!-- WORK.SCADATA1&#45;&gt;_03_datastep -->
<g id="edge5" class="edge" data-name="WORK.SCADATA1-&gt;_03_datastep">

<path fill="none" stroke="black" d="M819.22,-123.76C830.04,-122.26 841.48,-120.68 852.7,-119.12"/>
<polygon fill="black" stroke="black" points="852.91,-122.63 862.33,-117.79 851.95,-115.7 852.91,-122.63"/>
</g>
<!-- _04_datastep -->
<g id="node17" class="node" pointer-events="visible" data-name="_04_datastep">

<ellipse fill="yellow" stroke="yellow" cx="1279.83" cy="-130.8" rx="73" ry="18"/>
<text text-anchor="middle" x="1279.83" y="-126.6" font-family="Times,serif" font-size="14.00">_04_datastep ( )</text>
</g>
<!-- WORK.SCADATA1&#45;&gt;_04_datastep -->
<g id="edge7" class="edge" data-name="WORK.SCADATA1-&gt;_04_datastep">

<path fill="none" stroke="black" d="M819.48,-134.67C831.26,-135.14 843.56,-135.56 855.08,-135.8 995.27,-138.78 1030.39,-139.04 1170.58,-135.8 1179.01,-135.61 1187.81,-135.33 1196.6,-135"/>
<polygon fill="black" stroke="black" points="1196.73,-138.49 1206.58,-134.6 1196.45,-131.5 1196.73,-138.49"/>
</g>
<!-- WORK.CONCATMEM -->
<g id="node3" class="node" pointer-events="visible" data-name="WORK.CONCATMEM">

<polygon fill="lightblue" stroke="lightblue" points="1170.58,-126.8 1037.58,-126.8 1037.58,-88.8 1170.58,-88.8 1170.58,-126.8"/>
<text text-anchor="start" x="1045.74" y="-112" font-family="Times,serif" font-size="12.00">WORK.CONCATMEM</text>
<text text-anchor="start" x="1048.08" y="-97.8" font-family="Times,serif" font-size="10.00">concatmem</text>
<text text-anchor="start" x="1129.71" y="-97.8" font-family="Times,serif" font-size="10.00">char (8)</text>
</g>
<!-- WORK.CONCATMEM&#45;&gt;_04_datastep -->
<g id="edge8" class="edge" data-name="WORK.CONCATMEM-&gt;_04_datastep">

<path fill="none" stroke="black" d="M1170.77,-116.5C1181.46,-117.91 1192.62,-119.39 1203.53,-120.83"/>
<polygon fill="black" stroke="black" points="1202.9,-124.28 1213.27,-122.12 1203.82,-117.34 1202.9,-124.28"/>
</g>
<!-- WORK.SCADATA2 -->
<g id="node4" class="node" pointer-events="visible" data-name="WORK.SCADATA2">

<polygon fill="lightblue" stroke="lightblue" points="1507.08,-203.8 1389.08,-203.8 1389.08,-165.8 1507.08,-165.8 1507.08,-203.8"/>
<text text-anchor="start" x="1396.91" y="-189" font-family="Times,serif" font-size="12.00">WORK.SCADATA2</text>
<text text-anchor="start" x="1399.08" y="-174.8" font-family="Times,serif" font-size="10.00">elapsed</text>
<text text-anchor="start" x="1465.14" y="-174.8" font-family="Times,serif" font-size="10.00">num (8)</text>
</g>
<!-- _06_sql -->
<g id="node18" class="node" pointer-events="visible" data-name="_06_sql">

<ellipse fill="yellow" stroke="yellow" cx="1616.33" cy="-225.8" rx="52.76" ry="18"/>
<text text-anchor="middle" x="1616.33" y="-221.6" font-family="Times,serif" font-size="14.00">_06_sql ( )</text>
</g>
<!-- WORK.SCADATA2&#45;&gt;_06_sql -->
<g id="edge11" class="edge" data-name="WORK.SCADATA2-&gt;_06_sql">

<path fill="none" stroke="black" d="M1507.22,-199.14C1524.89,-203.5 1544.22,-208.26 1561.58,-212.54"/>
<polygon fill="black" stroke="black" points="1560.65,-215.92 1571.2,-214.92 1562.33,-209.12 1560.65,-215.92"/>
</g>
<!-- _07_sql -->
<g id="node19" class="node" pointer-events="visible" data-name="_07_sql">

<ellipse fill="yellow" stroke="yellow" cx="1616.33" cy="-171.8" rx="52.76" ry="18"/>
<text text-anchor="middle" x="1616.33" y="-167.6" font-family="Times,serif" font-size="14.00">_07_sql ( )</text>
</g>
<!-- WORK.SCADATA2&#45;&gt;_07_sql -->
<g id="edge12" class="edge" data-name="WORK.SCADATA2-&gt;_07_sql">

<path fill="none" stroke="black" d="M1507.22,-180.25C1522.07,-179.09 1538.09,-177.84 1553.14,-176.66"/>
<polygon fill="black" stroke="black" points="1553.21,-180.17 1562.9,-175.9 1552.66,-173.19 1553.21,-180.17"/>
</g>
<!-- _09_sql -->
<g id="node20" class="node" pointer-events="visible" data-name="_09_sql">

<ellipse fill="yellow" stroke="yellow" cx="1616.33" cy="-279.8" rx="52.76" ry="18"/>
<text text-anchor="middle" x="1616.33" y="-275.6" font-family="Times,serif" font-size="14.00">_09_sql ( )</text>
</g>
<!-- WORK.SCADATA2&#45;&gt;_09_sql -->
<g id="edge15" class="edge" data-name="WORK.SCADATA2-&gt;_09_sql">

<path fill="none" stroke="black" d="M1472.25,-204.29C1490.6,-219.02 1517.34,-239 1543.08,-252.8 1550.3,-256.67 1558.2,-260.23 1566.03,-263.41"/>
<polygon fill="black" stroke="black" points="1564.61,-266.62 1575.2,-266.96 1567.14,-260.09 1564.61,-266.62"/>
</g>
<!-- WORK.EXT_FILES -->
<g id="node5" class="node" pointer-events="visible" data-name="WORK.EXT_FILES">

<polygon fill="lightblue" stroke="lightblue" points="1868.08,-134.8 1752.08,-134.8 1752.08,-96.8 1868.08,-96.8 1868.08,-134.8"/>
<text text-anchor="start" x="1759.58" y="-120" font-family="Times,serif" font-size="12.00">WORK.EXT_FILES</text>
<text text-anchor="start" x="1762.08" y="-105.8" font-family="Times,serif" font-size="10.00">word4</text>
<text text-anchor="start" x="1816.71" y="-105.8" font-family="Times,serif" font-size="10.00">char (100)</text>
</g>
<!-- _19_datastep -->
<g id="node28" class="node" pointer-events="visible" data-name="_19_datastep">

<ellipse fill="yellow" stroke="yellow" cx="2003.83" cy="-222.8" rx="73" ry="18"/>
<text text-anchor="middle" x="2003.83" y="-218.6" font-family="Times,serif" font-size="14.00">_19_datastep ( )</text>
</g>
<!-- WORK.EXT_FILES&#45;&gt;_19_datastep -->
<g id="edge30" class="edge" data-name="WORK.EXT_FILES-&gt;_19_datastep">

<path fill="none" stroke="black" d="M1868.19,-132.33C1877.21,-135.69 1886.29,-139.52 1894.58,-143.8 1923.57,-158.78 1953.28,-181.06 1974.23,-198.14"/>
<polygon fill="black" stroke="black" points="1971.82,-200.69 1981.75,-204.38 1976.29,-195.3 1971.82,-200.69"/>
</g>
<!-- WORK.ATTRS -->
<g id="node6" class="node" pointer-events="visible" data-name="WORK.ATTRS">

<polygon fill="lightblue" stroke="lightblue" points="1494.58,-121.8 1401.58,-121.8 1401.58,-83.8 1494.58,-83.8 1494.58,-121.8"/>
<text text-anchor="start" x="1409.75" y="-107" font-family="Times,serif" font-size="12.00">WORK.ATTRS</text>
<text text-anchor="start" x="1412.08" y="-92.8" font-family="Times,serif" font-size="10.00">step</text>
<text text-anchor="start" x="1453.14" y="-92.8" font-family="Times,serif" font-size="10.00">num (5)</text>
</g>
<!-- _13_sort -->
<g id="node23" class="node" pointer-events="visible" data-name="_13_sort">

<ellipse fill="yellow" stroke="yellow" cx="1616.33" cy="-62.8" rx="56.19" ry="18"/>
<text text-anchor="middle" x="1616.33" y="-58.6" font-family="Times,serif" font-size="14.00">_13_sort ( )</text>
</g>
<!-- WORK.ATTRS&#45;&gt;_13_sort -->
<g id="edge20" class="edge" data-name="WORK.ATTRS-&gt;_13_sort">

<path fill="none" stroke="black" d="M1494.95,-85.66C1512.62,-80.75 1533.13,-75.66 1552.16,-71.42"/>
<polygon fill="black" stroke="black" points="1552.65,-74.9 1561.68,-69.36 1551.16,-68.06 1552.65,-74.9"/>
</g>
<!-- _14_datastep -->
<g id="node24" class="node" pointer-events="visible" data-name="_14_datastep">

<ellipse fill="yellow" stroke="yellow" cx="1616.33" cy="-116.8" rx="73" ry="18"/>
<text text-anchor="middle" x="1616.33" y="-112.6" font-family="Times,serif" font-size="14.00">_14_datastep ( )</text>
</g>
<!-- WORK.ATTRS&#45;&gt;_14_datastep -->
<g id="edge22" class="edge" data-name="WORK.ATTRS-&gt;_14_datastep">

<path fill="none" stroke="black" d="M1494.95,-106.66C1507.54,-107.72 1521.56,-108.9 1535.47,-110.07"/>
<polygon fill="black" stroke="black" points="1534.8,-113.53 1545.05,-110.88 1535.38,-106.56 1534.8,-113.53"/>
</g>
<!-- WORK.WITH_KNOWN_OUT -->
<g id="node7" class="node" pointer-events="visible" data-name="WORK.WITH_KNOWN_OUT">

<polygon fill="lightblue" stroke="lightblue" points="1894.58,-190.8 1725.58,-190.8 1725.58,-152.8 1894.58,-152.8 1894.58,-190.8"/>
<text text-anchor="start" x="1733.76" y="-176" font-family="Times,serif" font-size="12.00">WORK.WITH_KNOWN_OUT</text>
<text text-anchor="start" x="1736.08" y="-161.8" font-family="Times,serif" font-size="10.00">step</text>
<text text-anchor="start" x="1853.14" y="-161.8" font-family="Times,serif" font-size="10.00">num (5)</text>
</g>
<!-- WORK.WITH_KNOWN_OUT&#45;&gt;_07_sql -->
<g id="edge13" class="edge" data-name="WORK.WITH_KNOWN_OUT-&gt;_07_sql">

<path fill="none" stroke="black" d="M1725.28,-178.5C1709.34,-178.63 1692.96,-178.5 1677.92,-178.13"/>
<polygon fill="black" stroke="black" points="1678.32,-174.64 1668.22,-177.83 1678.11,-181.63 1678.32,-174.64"/>
</g>
<!-- WORK.FLOW -->
<g id="node8" class="node" pointer-events="visible" data-name="WORK.FLOW">

<polygon fill="lightblue" stroke="lightblue" points="1854.58,-297.8 1765.58,-297.8 1765.58,-259.8 1854.58,-259.8 1854.58,-297.8"/>
<text text-anchor="start" x="1773.75" y="-283" font-family="Times,serif" font-size="12.00">WORK.FLOW</text>
<text text-anchor="start" x="1776.08" y="-268.8" font-family="Times,serif" font-size="10.00">elapsed</text>
<text text-anchor="start" x="1813.14" y="-268.8" font-family="Times,serif" font-size="10.00">num (8)</text>
</g>
<!-- _10_sort -->
<g id="node21" class="node" pointer-events="visible" data-name="_10_sort">

<ellipse fill="yellow" stroke="yellow" cx="2003.83" cy="-278.8" rx="56.19" ry="18"/>
<text text-anchor="middle" x="2003.83" y="-274.6" font-family="Times,serif" font-size="14.00">_10_sort ( )</text>
</g>
<!-- WORK.FLOW&#45;&gt;_10_sort -->
<g id="edge17" class="edge" data-name="WORK.FLOW-&gt;_10_sort">

<path fill="none" stroke="black" d="M1855.07,-273.02C1880.05,-271.98 1911.74,-271.78 1939.37,-272.41"/>
<polygon fill="black" stroke="black" points="1938.92,-275.89 1949.02,-272.67 1939.12,-268.9 1938.92,-275.89"/>
</g>
<!-- WORK.FLOW&#45;&gt;_19_datastep -->
<g id="edge31" class="edge" data-name="WORK.FLOW-&gt;_19_datastep">

<path fill="none" stroke="black" d="M1855.07,-265.95C1881.64,-258.19 1915.82,-248.21 1944.61,-239.8"/>
<polygon fill="black" stroke="black" points="1945.28,-243.25 1953.9,-237.09 1943.32,-236.53 1945.28,-243.25"/>
</g>
<!-- WORK.QLTY_CLEAN_BLACK_KNIGHT_AK -->

<!-- _20_datastep -->
<g id="node29" class="node" pointer-events="visible" data-name="_20_datastep">

<ellipse fill="yellow" stroke="yellow" cx="2667.83" cy="-217.8" rx="73" ry="18"/>
<text text-anchor="middle" x="2667.83" y="-213.6" font-family="Times,serif" font-size="14.00">_20_datastep ( )</text>
</g>
<!-- WORK.QLTY_CLEAN_BLACK_KNIGHT_AK&#45;&gt;_20_datastep -->

<!-- WORK.ATTRS_UNIQUE -->
<g id="node10" class="node" pointer-events="visible" data-name="WORK.ATTRS_UNIQUE">

<polygon fill="lightblue" stroke="lightblue" points="1882.58,-78.8 1737.58,-78.8 1737.58,-40.8 1882.58,-40.8 1882.58,-78.8"/>
<text text-anchor="start" x="1745.75" y="-64" font-family="Times,serif" font-size="12.00">WORK.ATTRS_UNIQUE</text>
<text text-anchor="start" x="1748.08" y="-49.8" font-family="Times,serif" font-size="10.00">step</text>
<text text-anchor="start" x="1841.14" y="-49.8" font-family="Times,serif" font-size="10.00">num (5)</text>
</g>
<!-- _15_sort -->
<g id="node25" class="node" pointer-events="visible" data-name="_15_sort">

<ellipse fill="yellow" stroke="yellow" cx="2003.83" cy="-59.8" rx="56.19" ry="18"/>
<text text-anchor="middle" x="2003.83" y="-55.6" font-family="Times,serif" font-size="14.00">_15_sort ( )</text>
</g>
<!-- WORK.ATTRS_UNIQUE&#45;&gt;_15_sort -->
<g id="edge24" class="edge" data-name="WORK.ATTRS_UNIQUE-&gt;_15_sort">

<path fill="none" stroke="black" d="M1883.02,-53.24C1901.51,-52.94 1921.25,-52.99 1939.28,-53.4"/>
<polygon fill="black" stroke="black" points="1938.94,-56.9 1949.03,-53.67 1939.13,-49.9 1938.94,-56.9"/>
</g>
<!-- _16_datastep -->
<g id="node26" class="node" pointer-events="visible" data-name="_16_datastep">

<ellipse fill="yellow" stroke="yellow" cx="2003.83" cy="-113.8" rx="73" ry="18"/>
<text text-anchor="middle" x="2003.83" y="-109.6" font-family="Times,serif" font-size="14.00">_16_datastep ( )</text>
</g>
<!-- WORK.ATTRS_UNIQUE&#45;&gt;_16_datastep -->
<g id="edge26" class="edge" data-name="WORK.ATTRS_UNIQUE-&gt;_16_datastep">

<path fill="none" stroke="black" d="M1880.3,-79.3C1901.03,-85.13 1923.56,-91.48 1943.59,-97.12"/>
<polygon fill="black" stroke="black" points="1942.4,-100.42 1952.97,-99.76 1944.29,-93.68 1942.4,-100.42"/>
</g>
<!-- WORK.ATTRS_LINES -->
<g id="node11" class="node" pointer-events="visible" data-name="WORK.ATTRS_LINES">

<polygon fill="lightblue" stroke="lightblue" points="2246.08,-132.8 2113.08,-132.8 2113.08,-94.8 2246.08,-94.8 2246.08,-132.8"/>
<text text-anchor="start" x="2121.25" y="-118" font-family="Times,serif" font-size="12.00">WORK.ATTRS_LINES</text>
<text text-anchor="start" x="2123.58" y="-103.8" font-family="Times,serif" font-size="10.00">line</text>
<text text-anchor="start" x="2190.21" y="-103.8" font-family="Times,serif" font-size="10.00">char (6000)</text>
</g>
<!-- _17_append -->
<g id="node27" class="node" pointer-events="visible" data-name="_17_append">

<ellipse fill="yellow" stroke="yellow" cx="2355.33" cy="-113.8" rx="69.49" ry="18"/>
<text text-anchor="middle" x="2355.33" y="-109.6" font-family="Times,serif" font-size="14.00">_17_append ( )</text>
</g>
<!-- WORK.ATTRS_LINES&#45;&gt;_17_append -->
<g id="edge28" class="edge" data-name="WORK.ATTRS_LINES-&gt;_17_append">

<path fill="none" stroke="black" d="M2246.27,-113.8C2255.35,-113.8 2264.77,-113.8 2274.08,-113.8"/>
<polygon fill="black" stroke="black" points="2273.85,-117.3 2283.85,-113.8 2273.85,-110.3 2273.85,-117.3"/>
</g>
<!-- WORK.FLOW_LINES -->
<g id="node12" class="node" pointer-events="visible" data-name="WORK.FLOW_LINES">

<polygon fill="lightblue" stroke="lightblue" points="2244.08,-241.8 2115.08,-241.8 2115.08,-203.8 2244.08,-203.8 2244.08,-241.8"/>
<text text-anchor="start" x="2123.25" y="-227" font-family="Times,serif" font-size="12.00">WORK.FLOW_LINES</text>
<text text-anchor="start" x="2125.58" y="-212.8" font-family="Times,serif" font-size="10.00">line</text>
<text text-anchor="start" x="2188.21" y="-212.8" font-family="Times,serif" font-size="10.00">char (6000)</text>
</g>
<!-- WORK.FLOW_LINES&#45;&gt;_20_datastep -->
<g id="edge34" class="edge" data-name="WORK.FLOW_LINES-&gt;_20_datastep">

<path fill="none" stroke="black" d="M2244.54,-241.77C2256.89,-244.69 2269.81,-247.25 2282.08,-248.8 2393.14,-262.8 2523.07,-245.33 2599.96,-231.5"/>
<polygon fill="black" stroke="black" points="2600.22,-235.01 2609.43,-229.76 2598.96,-228.13 2600.22,-235.01"/>
</g>
<!-- _21_append -->
<g id="node31" class="node" pointer-events="visible" data-name="_21_append">

<ellipse fill="yellow" stroke="yellow" cx="2355.33" cy="-221.8" rx="69.49" ry="18"/>
<text text-anchor="middle" x="2355.33" y="-217.6" font-family="Times,serif" font-size="14.00">_21_append ( )</text>
</g>
<!-- WORK.FLOW_LINES&#45;&gt;_21_append -->
<g id="edge36" class="edge" data-name="WORK.FLOW_LINES-&gt;_21_append">

<path fill="none" stroke="black" d="M2244.29,-222.43C2254,-222.38 2264.13,-222.32 2274.14,-222.26"/>
<polygon fill="black" stroke="black" points="2273.87,-225.76 2283.84,-222.21 2273.82,-218.76 2273.87,-225.76"/>
</g>
<!-- _01_datastep -->
<g id="node13" class="node" pointer-events="visible" data-name="_01_datastep">

<ellipse fill="yellow" stroke="yellow" cx="261.33" cy="-131.8" rx="73" ry="18"/>
<text text-anchor="middle" x="261.33" y="-127.6" font-family="Times,serif" font-size="14.00">_01_datastep ( )</text>
</g>
<!-- _01_datastep&#45;&gt;WORK.SCADATA -->
<g id="edge2" class="edge" data-name="_01_datastep-&gt;WORK.SCADATA">

<path fill="none" stroke="black" d="M334.41,-131.8C342.65,-131.8 351.03,-131.8 359.19,-131.8"/>
<polygon fill="black" stroke="black" points="359.04,-135.3 369.04,-131.8 359.04,-128.3 359.04,-135.3"/>
</g><g id="node14" class="node" pointer-events="visible" data-name="&amp;p_inScaprocFileName" data-comment="_01_datastep-&gt;WORK.SCADATA">

<polygon fill="lightgreen" stroke="lightgreen" points="146.11,-149.8 -0.04,-149.8 -0.04,-113.8 152.11,-113.8 152.11,-143.8 146.11,-149.8"/>
<polyline fill="none" stroke="lightgreen" points="146.11,-149.8 146.11,-143.8"/>
<polyline fill="none" stroke="lightgreen" points="152.11,-143.8 146.11,-143.8"/>
<text text-anchor="middle" x="76.04" y="-127.6" font-family="Times,serif" font-size="14.00">&amp;p_inScaprocFileName</text>
</g>
<!-- H:\Projects\dotmysasprograms\logs\sca__qlty_clean_black_knight_ak.txt -->
<g id="edge1" class="edge" data-name="&amp;p_inScaprocFileName-&gt;_01_datastep" data-comment="H:\Projects\dotmysasprograms\logs\sca__qlty_clean_black_knight_ak.txt">

<path fill="none" stroke="black" d="M152.38,-131.8C160.37,-131.8 168.52,-131.8 176.6,-131.8"/>
<polygon fill="black" stroke="black" points="176.42,-135.3 186.42,-131.8 176.42,-128.3 176.42,-135.3"/>
</g>
<!-- H:\Projects\dotmysasprograms\logs\sca__qlty_clean_black_knight_ak.txt&#45;&gt;_01_datastep -->

<!-- _02_datastep&#45;&gt;WORK.SCADATA1 -->
<g id="edge4" class="edge" data-name="_02_datastep-&gt;WORK.SCADATA1">

<path fill="none" stroke="black" d="M665.26,-131.8C673.2,-131.8 681.27,-131.8 689.17,-131.8"/>
<polygon fill="black" stroke="black" points="689.09,-135.3 699.09,-131.8 689.09,-128.3 689.09,-135.3"/>
</g>
<!-- _03_datastep&#45;&gt;WORK.CONCATMEM -->
<g id="edge6" class="edge" data-name="_03_datastep-&gt;WORK.CONCATMEM">

<path fill="none" stroke="black" d="M1001.75,-108.38C1009.73,-108.34 1017.87,-108.29 1025.9,-108.24"/>
<polygon fill="black" stroke="black" points="1025.66,-111.75 1035.64,-108.19 1025.62,-104.75 1025.66,-111.75"/>
</g>
<!-- _04_datastep&#45;&gt;WORK.SCADATA2 -->
<g id="edge9" class="edge" data-name="_04_datastep-&gt;WORK.SCADATA2">

<path fill="none" stroke="black" d="M1325.38,-145.27C1341.47,-150.5 1360.04,-156.53 1377.74,-162.28"/>
<polygon fill="black" stroke="black" points="1376.6,-165.59 1387.19,-165.35 1378.76,-158.93 1376.6,-165.59"/>
</g>
<!-- _04_datastep&#45;&gt;WORK.ATTRS -->
<g id="edge10" class="edge" data-name="_04_datastep-&gt;WORK.ATTRS">

<path fill="none" stroke="black" d="M1340.85,-120.69C1356.86,-117.99 1374.12,-115.09 1389.98,-112.42"/>
<polygon fill="black" stroke="black" points="1390.46,-115.88 1399.74,-110.77 1389.3,-108.98 1390.46,-115.88"/>
</g>
<!-- _05_delete -->

<!-- _07_sql&#45;&gt;WORK.WITH_KNOWN_OUT -->
<g id="edge14" class="edge" data-name="_07_sql-&gt;WORK.WITH_KNOWN_OUT">

<path fill="none" stroke="black" d="M1666.71,-165.81C1681.22,-165.3 1697.62,-165.04 1713.98,-165.05"/>
<polygon fill="black" stroke="black" points="1713.75,-168.55 1723.76,-165.09 1713.78,-161.55 1713.75,-168.55"/>
</g>
<!-- _08_delete -->

<!-- _09_sql&#45;&gt;WORK.FLOW -->
<g id="edge16" class="edge" data-name="_09_sql-&gt;WORK.FLOW">

<path fill="none" stroke="black" d="M1669.47,-279.53C1695.65,-279.39 1727.37,-279.23 1753.95,-279.09"/>
<polygon fill="black" stroke="black" points="1753.88,-282.59 1763.87,-279.04 1753.85,-275.59 1753.88,-282.59"/>
</g><g id="node9" class="node" pointer-events="visible" data-name="&amp;p_outDsName" data-comment="_09_sql-&gt;WORK.FLOW">

<polygon fill="lightblue" stroke="lightblue" points="2558.58,-213.8 2464.58,-213.8 2464.58,-175.8 2558.58,-175.8 2558.58,-213.8"/>
<text text-anchor="start" x="2472.25" y="-199" font-family="Times,serif" font-size="12">&amp;p_outDsName</text>
<text text-anchor="start" x="2474.58" y="-184.8" font-family="Times,serif" font-size="10.00">line</text>
<text text-anchor="start" x="2502.21" y="-184.8" font-family="Times,serif" font-size="10.00">char (6000)</text>
</g>
<!-- _10_sort&#45;&gt;WORK.FLOW -->
<g id="edge18" class="edge" data-name="_10_sort-&gt;WORK.FLOW">

<path fill="none" stroke="black" d="M1950.53,-284.89C1924.46,-285.74 1892.94,-285.77 1866.46,-284.98"/>
<polygon fill="black" stroke="black" points="1866.7,-281.49 1856.58,-284.63 1866.45,-288.49 1866.7,-281.49"/>
</g><g id="edge19" class="edge" data-name="_12_datastep-&gt;&amp;p_outDsName" data-comment="_10_sort-&gt;WORK.FLOW">

<path fill="none" stroke="black" d="M2415.97,-178.24C2428.3,-180.4 2441.26,-182.67 2453.5,-184.81"/>
<polygon fill="black" stroke="black" points="2452.55,-188.2 2463.01,-186.47 2453.76,-181.3 2452.55,-188.2"/>
</g>
<!-- _11_delete -->
<g id="edge33" class="edge" data-name="&amp;p_outDsName-&gt;_20_datastep" data-comment="_11_delete">

<path fill="none" stroke="black" d="M2558.86,-201.7C2569.75,-203.33 2581.63,-205.1 2593.39,-206.85"/>
<polygon fill="black" stroke="black" points="2592.7,-210.28 2603.1,-208.3 2593.73,-203.36 2592.7,-210.28"/>
</g>
<!-- _12_datastep -->
<g id="node22" class="node" pointer-events="visible" data-name="_12_datastep">

<ellipse fill="yellow" stroke="yellow" cx="2355.33" cy="-167.8" rx="73" ry="18"/>
<text text-anchor="middle" x="2355.33" y="-163.6" font-family="Times,serif" font-size="14.00">_12_datastep ( )</text>
</g>
<!-- _12_datastep&#45;&gt;WORK.QLTY_CLEAN_BLACK_KNIGHT_AK -->

<!-- _13_sort&#45;&gt;WORK.ATTRS -->
<g id="edge21" class="edge" data-name="_13_sort-&gt;WORK.ATTRS">

<path fill="none" stroke="black" d="M1580.15,-76.89C1558.63,-83.21 1530.6,-90.22 1505.98,-95.55"/>
<polygon fill="black" stroke="black" points="1505.49,-92.08 1496.43,-97.56 1506.93,-98.93 1505.49,-92.08"/>
</g>
<!-- _14_datastep&#45;&gt;WORK.ATTRS_UNIQUE -->
<g id="edge23" class="edge" data-name="_14_datastep-&gt;WORK.ATTRS_UNIQUE">

<path fill="none" stroke="black" d="M1664.24,-102.86C1684.91,-96.71 1709.74,-89.33 1732.95,-82.43"/>
<polygon fill="black" stroke="black" points="1733.8,-85.83 1742.38,-79.63 1731.8,-79.12 1733.8,-85.83"/>
</g>
<!-- _15_sort&#45;&gt;WORK.ATTRS_UNIQUE -->
<g id="edge25" class="edge" data-name="_15_sort-&gt;WORK.ATTRS_UNIQUE">

<path fill="none" stroke="black" d="M1950.54,-65.89C1933.23,-66.45 1913.51,-66.66 1894.46,-66.5"/>
<polygon fill="black" stroke="black" points="1894.58,-63 1884.54,-66.38 1894.49,-70 1894.58,-63"/>
</g><g id="edge29" class="edge" data-name="_17_append-&gt;&amp;p_outDsName" data-comment="_15_sort-&gt;WORK.ATTRS_UNIQUE">

<path fill="none" stroke="black" d="M2399.42,-128.09C2409.19,-131.83 2419.39,-136.13 2428.58,-140.8 2444.51,-148.89 2461.14,-159.41 2475.23,-169.01"/>
<polygon fill="black" stroke="black" points="2473.08,-171.78 2483.29,-174.61 2477.07,-166.03 2473.08,-171.78"/>
</g>
<!-- _16_datastep&#45;&gt;WORK.ATTRS_LINES -->
<g id="edge27" class="edge" data-name="_16_datastep-&gt;WORK.ATTRS_LINES">

<path fill="none" stroke="black" d="M2077.26,-113.8C2085.23,-113.8 2093.37,-113.8 2101.4,-113.8"/>
<polygon fill="black" stroke="black" points="2101.14,-117.3 2111.14,-113.8 2101.14,-110.3 2101.14,-117.3"/>
</g>
<!-- _17_append&#45;&gt;WORK.QLTY_CLEAN_BLACK_KNIGHT_AK -->
<g id="node30" class="node" pointer-events="visible" data-name="&amp;p_outDotFileName" data-comment="_17_append-&gt;WORK.QLTY_CLEAN_BLACK_KNIGHT_AK">

<polygon fill="lightgreen" stroke="lightgreen" points="2906.06,-235.8 2777.09,-235.8 2777.09,-199.8 2912.06,-199.8 2912.06,-229.8 2906.06,-235.8"/>
<polyline fill="none" stroke="lightgreen" points="2906.06,-235.8 2906.06,-229.8"/>
<polyline fill="none" stroke="lightgreen" points="2912.06,-229.8 2906.06,-229.8"/>
<text text-anchor="middle" x="2844.57" y="-213.6" font-family="Times,serif" font-size="14.00">&amp;p_outDotFileName</text>
</g>
<!-- _18_delete -->
<g id="edge35" class="edge" data-name="_20_datastep-&gt;&amp;p_outDotFileName" data-comment="_18_delete">

<path fill="none" stroke="black" d="M2741.17,-217.8C2749.14,-217.8 2757.29,-217.8 2765.34,-217.8"/>
<polygon fill="black" stroke="black" points="2765.1,-221.3 2775.1,-217.8 2765.1,-214.3 2765.1,-221.3"/>
</g>
<g id="edge32" class="edge" data-name="_19_datastep-&gt;WORK.FLOW_LINES" data-comment="_18_delete">

<path fill="none" stroke="black" d="M2077.26,-222.8C2085.93,-222.8 2094.81,-222.8 2103.52,-222.8"/>
<polygon fill="black" stroke="black" points="2103.33,-226.3 2113.33,-222.8 2103.33,-219.3 2103.33,-226.3"/>
</g><g id="edge37" class="edge" data-name="_21_append-&gt;&amp;p_outDsName" data-comment="_18_delete">

<path fill="none" stroke="black" d="M2413.77,-211.75C2426.62,-209.5 2440.25,-207.11 2453.11,-204.86"/>
<polygon fill="black" stroke="black" points="2453.42,-208.36 2462.67,-203.19 2452.22,-201.46 2453.42,-208.36"/>
</g></g>
</svg>